<svg width="59" height="11" viewBox="0 0 59 11" fill="none" xmlns="http://www.w3.org/2000/svg">
<path d="M10.8925 4.19647C10.8039 3.92383 10.5688 3.72632 10.2855 3.68495L7.41712 3.26803L6.13422 0.670763C5.88105 0.157048 5.04064 0.157048 4.78747 0.670763L3.50457 3.26803L0.642952 3.68495C0.359821 3.7262 0.124743 3.92452 0.0368188 4.19647C-0.0517964 4.46912 0.0225297 4.76734 0.227647 4.96635L2.30221 6.98307L1.81327 9.83731C1.76522 10.1189 1.88091 10.4044 2.11219 10.5726C2.34427 10.7402 2.65068 10.7619 2.90385 10.629L5.46056 9.28072L8.02487 10.629C8.13457 10.6868 8.25476 10.7154 8.37414 10.7154C8.52959 10.7154 8.68504 10.6673 8.81733 10.5727C9.04872 10.4037 9.1643 10.1191 9.11625 9.83742L8.62731 6.98318L10.7019 4.96647C10.9068 4.76803 10.9811 4.46842 10.8925 4.19647Z" fill="#F1B10C"/>
<path d="M22.9102 4.19647C22.8216 3.92383 22.5865 3.72632 22.3032 3.68495L19.4348 3.26803L18.1519 0.670763C17.8987 0.157048 17.0583 0.157048 16.8052 0.670763L15.5223 3.26803L12.6605 3.68495C12.3774 3.7262 12.1423 3.92452 12.0544 4.19647C11.9658 4.46912 12.0401 4.76734 12.2452 4.96635L14.3198 6.98307L13.8309 9.83731C13.7828 10.1189 13.8985 10.4052 14.1298 10.5726C14.3612 10.7402 14.6691 10.7619 14.9214 10.629L17.4781 9.28072L20.0424 10.629C20.1522 10.6868 20.2723 10.7154 20.3917 10.7154C20.5472 10.7154 20.7026 10.6673 20.8349 10.5727C21.0663 10.4037 21.1819 10.1191 21.1338 9.83742L20.6449 6.98318L22.7195 4.96647C22.9245 4.76803 22.9988 4.46842 22.9102 4.19647Z" fill="#F1B10C"/>
<path d="M34.9279 4.19647C34.8393 3.92383 34.6042 3.72632 34.3209 3.68495L31.4524 3.26803L30.1695 0.670763C29.9163 0.157048 29.0759 0.157048 28.8227 0.670763L27.5398 3.26803L24.6781 3.68495C24.395 3.7262 24.1599 3.92452 24.072 4.19647C23.9834 4.46912 24.0577 4.76734 24.2628 4.96635L26.3374 6.98307L25.8484 9.83731C25.8004 10.1189 25.9161 10.4052 26.1473 10.5726C26.3787 10.7402 26.6866 10.7619 26.939 10.629L29.4958 9.28072L32.0601 10.629C32.1698 10.6868 32.29 10.7154 32.4094 10.7154C32.5649 10.7154 32.7203 10.6673 32.8526 10.5727C33.084 10.4037 33.1996 10.1191 33.1515 9.83742L32.6626 6.98318L34.7372 4.96647C34.9422 4.76803 35.0165 4.46842 34.9279 4.19647Z" fill="#F1B10C"/>
<path d="M46.9456 4.19566C46.857 3.92301 46.6219 3.7255 46.3386 3.68413L43.4702 3.26721L42.1873 0.670061C41.9341 0.156346 41.0937 0.156346 40.8406 0.670061L39.5577 3.26733L36.6959 3.68425C36.4128 3.7255 36.1777 3.92382 36.0898 4.19577C36.0012 4.46842 36.0755 4.76665 36.2806 4.96566L38.3552 6.98237L37.8662 9.83661C37.8182 10.1182 37.9339 10.4037 38.1652 10.5719C38.3973 10.7395 38.7045 10.7613 38.9568 10.6283L41.5137 9.28003L44.078 10.6283C44.1877 10.6861 44.3079 10.7147 44.4272 10.7147C44.5827 10.7147 44.7381 10.6667 44.8704 10.572C45.1018 10.403 45.2174 10.1184 45.1693 9.83673L44.6804 6.98249L46.755 4.96577C46.9599 4.76803 47.0342 4.46761 46.9456 4.19566Z" fill="#F1B10C"/>
<path d="M58.9634 4.19646C58.8747 3.92382 58.6397 3.72631 58.3564 3.68494L55.488 3.26814L54.2051 0.670869C53.9519 0.157155 53.1115 0.157155 52.8584 0.670869L51.5755 3.26814L48.7137 3.68494C48.4306 3.72631 48.1955 3.92451 48.1076 4.19646C48.019 4.46911 48.0933 4.76733 48.2984 4.96634L50.373 6.98306L49.8841 9.8373C49.836 10.1189 49.9517 10.4044 50.183 10.5726C50.4151 10.74 50.7223 10.7619 50.9746 10.629L53.5315 9.28071L56.0958 10.629C56.2055 10.6868 56.3256 10.7154 56.445 10.7154C56.6005 10.7154 56.7559 10.6673 56.8882 10.5727C57.1196 10.4037 57.2352 10.119 57.1871 9.83741L56.6982 6.98317L58.7728 4.96646C58.9776 4.76802 59.052 4.4683 58.9634 4.19646ZM55.3655 6.1816C55.1883 6.35434 55.1064 6.60302 55.1484 6.84708L55.4473 8.59115L53.8798 7.76723C53.7709 7.70938 53.6507 7.6808 53.5305 7.6808C53.4103 7.6808 53.2902 7.70938 53.1813 7.76723L51.622 8.58896L51.9209 6.8472C51.963 6.60313 51.8812 6.35376 51.7038 6.18172L50.439 4.95217L52.1823 4.69831C52.4264 4.66305 52.6375 4.50898 52.7472 4.2875L53.5305 2.70038L54.3139 4.2875C54.4236 4.50978 54.6346 4.66305 54.8795 4.69831L56.6295 4.95298L55.3655 6.1816Z" fill="#F1B10C"/>
</svg>
