<svg width="32" height="32" viewBox="0 0 32 32" fill="none" xmlns="http://www.w3.org/2000/svg">
<path d="M16.5 1C7.93948 1 1 7.93948 1 16.5C1 25.0605 7.93948 32 16.5 32C25.0605 32 32 25.0605 32 16.5C32 7.93948 25.0605 1 16.5 1ZM22.461 18.4876C22.461 18.4876 23.8318 19.8406 24.1693 20.4686C24.179 20.4816 24.1838 20.4945 24.187 20.5009C24.3243 20.7318 24.3566 20.911 24.2888 21.0451C24.1757 21.2679 23.7882 21.3777 23.6558 21.3873H21.234C21.066 21.3873 20.7141 21.3437 20.2878 21.0499C19.9601 20.8206 19.6371 20.4444 19.3223 20.0779C18.8524 19.5322 18.4456 19.0607 18.0355 19.0607C17.9834 19.0606 17.9316 19.0688 17.8821 19.0849C17.5721 19.1851 17.1749 19.6274 17.1749 20.8061C17.1749 21.1742 16.8843 21.3857 16.6792 21.3857H15.57C15.1922 21.3857 13.224 21.2533 11.4803 19.4143C9.34578 17.162 7.42443 12.6444 7.40828 12.6024C7.28719 12.3102 7.53745 12.1535 7.81031 12.1535H10.2564C10.5826 12.1535 10.6891 12.3521 10.7634 12.5281C10.8506 12.7332 11.1703 13.5485 11.695 14.4656C12.5459 15.9607 13.0674 16.5678 13.4856 16.5678C13.564 16.5669 13.641 16.5469 13.71 16.5097C14.2557 16.2061 14.154 14.2606 14.1298 13.8569C14.1298 13.781 14.1282 12.9867 13.8489 12.6056C13.6486 12.3295 13.308 12.2246 13.1013 12.1858C13.1849 12.0704 13.2952 11.9768 13.4226 11.913C13.7972 11.7257 14.4721 11.6982 15.1421 11.6982H15.5151C16.2417 11.7079 16.429 11.7547 16.6921 11.8209C17.2249 11.9485 17.2362 12.2924 17.1894 13.4694C17.1749 13.8036 17.1604 14.1815 17.1604 14.6271C17.1604 14.724 17.1555 14.8273 17.1555 14.9371C17.1394 15.5361 17.12 16.2158 17.543 16.4952C17.5982 16.5298 17.662 16.5482 17.7271 16.5484C17.874 16.5484 18.3164 16.5484 19.5144 14.4931C19.8839 13.8315 20.205 13.144 20.4751 12.4361C20.4993 12.3941 20.5704 12.2649 20.6543 12.2149C20.7163 12.1833 20.785 12.1672 20.8545 12.1681H23.7301C24.0433 12.1681 24.2581 12.2149 24.2984 12.336C24.3695 12.5281 24.2855 13.1142 22.9729 14.8919L22.3868 15.6653C21.1968 17.2249 21.1968 17.3041 22.461 18.4876V18.4876Z" fill="white" fill-opacity="0.5"/>
</svg>
