<svg width="21" height="16" viewBox="0 0 21 16" fill="none" xmlns="http://www.w3.org/2000/svg">
<path d="M19.6875 6.85714C20.0498 6.85714 20.3591 6.96875 20.6155 7.19196C20.8718 7.41518 21 7.68452 21 8C21 8.31548 20.8718 8.58482 20.6155 8.80804C20.3591 9.03125 20.0498 9.14286 19.6875 9.14286H19.5337L18.3545 15.0536C18.2998 15.3274 18.1494 15.5536 17.9033 15.7321C17.6572 15.9107 17.377 16 17.0625 16H3.9375C3.62305 16 3.34277 15.9107 3.09668 15.7321C2.85059 15.5536 2.7002 15.3274 2.64551 15.0536L1.46631 9.14286H1.3125C0.950195 9.14286 0.640869 9.03125 0.384521 8.80804C0.128174 8.58482 0 8.31548 0 8C0 7.68452 0.128174 7.41518 0.384521 7.19196C0.640869 6.96875 0.950195 6.85714 1.3125 6.85714H19.6875ZM4.97314 14C5.15088 13.9881 5.29956 13.9211 5.41919 13.7991C5.53882 13.6771 5.5918 13.5387 5.57812 13.3839L5.25 9.66964C5.23633 9.51488 5.15942 9.38542 5.01929 9.28125C4.87915 9.17708 4.72021 9.13095 4.54248 9.14286C4.36475 9.15476 4.21606 9.22173 4.09644 9.34375C3.97681 9.46577 3.92383 9.60417 3.9375 9.75893L4.26562 13.4732C4.2793 13.622 4.34937 13.747 4.47583 13.8482C4.60229 13.9494 4.75098 14 4.92188 14H4.97314ZM9.1875 13.4286V9.71429C9.1875 9.55952 9.12256 9.4256 8.99268 9.3125C8.86279 9.1994 8.70898 9.14286 8.53125 9.14286C8.35352 9.14286 8.19971 9.1994 8.06982 9.3125C7.93994 9.4256 7.875 9.55952 7.875 9.71429V13.4286C7.875 13.5833 7.93994 13.7173 8.06982 13.8304C8.19971 13.9435 8.35352 14 8.53125 14C8.70898 14 8.86279 13.9435 8.99268 13.8304C9.12256 13.7173 9.1875 13.5833 9.1875 13.4286ZM13.125 13.4286V9.71429C13.125 9.55952 13.0601 9.4256 12.9302 9.3125C12.8003 9.1994 12.6465 9.14286 12.4688 9.14286C12.291 9.14286 12.1372 9.1994 12.0073 9.3125C11.8774 9.4256 11.8125 9.55952 11.8125 9.71429V13.4286C11.8125 13.5833 11.8774 13.7173 12.0073 13.8304C12.1372 13.9435 12.291 14 12.4688 14C12.6465 14 12.8003 13.9435 12.9302 13.8304C13.0601 13.7173 13.125 13.5833 13.125 13.4286ZM16.7344 13.4732L17.0625 9.75893C17.0762 9.60417 17.0232 9.46577 16.9036 9.34375C16.7839 9.22173 16.6353 9.15476 16.4575 9.14286C16.2798 9.13095 16.1208 9.17708 15.9807 9.28125C15.8406 9.38542 15.7637 9.51488 15.75 9.66964L15.4219 13.3839C15.4082 13.5387 15.4612 13.6771 15.5808 13.7991C15.7004 13.9211 15.8491 13.9881 16.0269 14H16.0781C16.249 14 16.3977 13.9494 16.5242 13.8482C16.6506 13.747 16.7207 13.622 16.7344 13.4732ZM4.88086 2.60714L3.92725 6.28571H2.57373L3.60938 2.34821C3.73926 1.8244 4.04346 1.39732 4.52197 1.06696C5.00049 0.736607 5.54736 0.571429 6.1626 0.571429H7.875C7.875 0.416667 7.93994 0.282738 8.06982 0.169643C8.19971 0.0565476 8.35352 0 8.53125 0H12.4688C12.6465 0 12.8003 0.0565476 12.9302 0.169643C13.0601 0.282738 13.125 0.416667 13.125 0.571429H14.8374C15.4526 0.571429 15.9995 0.736607 16.478 1.06696C16.9565 1.39732 17.2607 1.8244 17.3906 2.34821L18.4263 6.28571H17.0728L16.1191 2.60714C16.0439 2.34524 15.8884 2.13095 15.6526 1.96429C15.4167 1.79762 15.145 1.71429 14.8374 1.71429H13.125C13.125 1.86905 13.0601 2.00298 12.9302 2.11607C12.8003 2.22917 12.6465 2.28571 12.4688 2.28571H8.53125C8.35352 2.28571 8.19971 2.22917 8.06982 2.11607C7.93994 2.00298 7.875 1.86905 7.875 1.71429H6.1626C5.85498 1.71429 5.58325 1.79762 5.34741 1.96429C5.11157 2.13095 4.95605 2.34524 4.88086 2.60714Z" fill="white"/>
</svg>
