<svg width="32" height="32" viewBox="0 0 32 32" fill="none" xmlns="http://www.w3.org/2000/svg">
<g clip-path="url(#clip0)">
<path d="M32 16.092C32 7.19828 24.833 -0.00708008 16 -0.00708008C7.161 -0.00708008 0 7.19828 0 16.092C0 24.1255 5.849 30.7865 13.5 31.9929V20.7467H9.437V16.093H13.5V12.5442C13.5 8.51036 15.885 6.28264 19.541 6.28264C21.292 6.28264 23.125 6.59657 23.125 6.59657V10.558H21.104C19.12 10.558 18.5 11.8006 18.5 13.0734V16.092H22.937L22.224 20.7457H18.5V31.9919C26.145 30.7855 32 24.1255 32 16.092Z" fill="white" fill-opacity="0.5"/>
</g>
<defs>
<clipPath id="clip0">
<rect width="32" height="32" fill="white"/>
</clipPath>
</defs>
</svg>
