<svg width="116" height="46" viewBox="0 0 116 46" fill="none" xmlns="http://www.w3.org/2000/svg">
<path d="M47.378 28.72L48.358 28.58V22.168L47.378 22.028V21.748H49.758V23.26C50.1033 22.756 50.5093 22.3593 50.976 22.07C51.4427 21.7713 51.9467 21.622 52.488 21.622C53.16 21.622 53.6873 21.79 54.07 22.126C54.462 22.462 54.658 22.9613 54.658 23.624V28.58L55.638 28.72V29H52.418V28.72L53.258 28.58V23.652C53.258 23.1667 53.16 22.7933 52.964 22.532C52.768 22.2613 52.4647 22.126 52.054 22.126C51.6247 22.126 51.2093 22.2847 50.808 22.602C50.416 22.91 50.066 23.2927 49.758 23.75V28.58L50.598 28.72V29H47.378V28.72ZM58.5747 29.14C57.9774 29.14 57.4874 28.986 57.1047 28.678C56.7221 28.3607 56.5307 27.894 56.5307 27.278C56.5307 26.4007 56.8994 25.78 57.6367 25.416C58.3741 25.0427 59.2281 24.856 60.1987 24.856H61.1367V23.778C61.1367 23.2927 61.0807 22.9193 60.9687 22.658C60.8661 22.3873 60.7027 22.2007 60.4787 22.098C60.2547 21.986 59.9514 21.93 59.5687 21.93C59.1301 21.93 58.8034 22.0187 58.5887 22.196C58.3741 22.364 58.2667 22.5927 58.2667 22.882C58.2667 23.1527 58.3974 23.33 58.6587 23.414C58.6587 23.6473 58.5701 23.8527 58.3927 24.03C58.2154 24.2073 58.0054 24.296 57.7627 24.296C57.5014 24.296 57.2914 24.226 57.1327 24.086C56.9741 23.9367 56.8947 23.7127 56.8947 23.414C56.8947 22.8727 57.1654 22.4387 57.7067 22.112C58.2481 21.7853 58.9247 21.622 59.7367 21.622C61.6034 21.622 62.5367 22.434 62.5367 24.058V28.062C62.5367 28.2673 62.5787 28.426 62.6627 28.538C62.7561 28.6407 62.8867 28.692 63.0547 28.692C63.2134 28.692 63.3394 28.6407 63.4327 28.538C63.5261 28.426 63.5727 28.2767 63.5727 28.09H63.8667C63.8667 28.4167 63.7594 28.6733 63.5447 28.86C63.3394 29.0467 63.0501 29.14 62.6767 29.14C62.2474 29.14 61.8834 29.0187 61.5847 28.776C61.2954 28.524 61.1461 28.1367 61.1367 27.614C60.9127 28.09 60.5674 28.4633 60.1007 28.734C59.6434 29.0047 59.1347 29.14 58.5747 29.14ZM59.3447 28.524C59.5967 28.524 59.8534 28.4493 60.1147 28.3C60.3854 28.1507 60.6141 27.936 60.8007 27.656C60.9874 27.3667 61.0994 27.0213 61.1367 26.62V25.164H60.1987C59.4334 25.164 58.8594 25.3367 58.4767 25.682C58.1034 26.018 57.9167 26.494 57.9167 27.11C57.9167 27.6233 58.0381 27.9873 58.2807 28.202C58.5234 28.4167 58.8781 28.524 59.3447 28.524ZM67.1061 29.14C66.4901 29.14 65.9954 28.986 65.6221 28.678C65.2581 28.37 65.0761 27.88 65.0761 27.208V22.168L64.0821 22.028V21.748H65.0761V20.586L66.4761 20.236V21.748H68.2961V22.028L66.4761 22.168V27.18C66.4761 28.1693 66.8307 28.664 67.5401 28.664C67.6894 28.664 67.8294 28.6407 67.9601 28.594C68.1001 28.5473 68.2074 28.5007 68.2821 28.454C68.3661 28.4073 68.4174 28.3747 68.4361 28.356L68.6181 28.58C68.1981 28.9533 67.6941 29.14 67.1061 29.14ZM72.0716 29.14C71.3996 29.14 70.8676 28.972 70.4756 28.636C70.0929 28.3 69.9016 27.8007 69.9016 27.138V22.168L68.9216 22.028V21.748H71.3016V27.11C71.3016 27.586 71.3996 27.9593 71.5956 28.23C71.7916 28.5007 72.0949 28.636 72.5056 28.636C72.9349 28.636 73.3456 28.496 73.7376 28.216C74.1389 27.9267 74.4936 27.572 74.8016 27.152V22.168L73.8216 22.028V21.748H76.2016V28.58L77.1816 28.72V29H74.8016V27.656C74.4656 28.1227 74.0596 28.4867 73.5836 28.748C73.1169 29.0093 72.6129 29.14 72.0716 29.14ZM77.9073 28.72L78.8873 28.58V22.168L77.9073 22.028V21.748H80.2873V22.826C80.8753 22.0233 81.538 21.622 82.2753 21.622C82.63 21.622 82.9426 21.7153 83.2133 21.902C83.484 22.0793 83.6193 22.336 83.6193 22.672C83.6193 22.9147 83.54 23.12 83.3813 23.288C83.2226 23.4467 83.0126 23.526 82.7513 23.526C82.4526 23.526 82.21 23.4093 82.0233 23.176C82.126 23.0453 82.1773 22.9053 82.1773 22.756C82.1773 22.5973 82.1213 22.4713 82.0093 22.378C81.9066 22.2753 81.7666 22.224 81.5893 22.224C81.3933 22.224 81.1926 22.3173 80.9873 22.504C80.782 22.6813 80.5486 22.9613 80.2873 23.344V28.58L81.4073 28.72V29H77.9073V28.72ZM87.8839 29.14C87.1933 29.14 86.5679 28.986 86.0079 28.678C85.4479 28.3607 85.0046 27.9173 84.6779 27.348C84.3513 26.7787 84.1879 26.1207 84.1879 25.374C84.1879 24.6273 84.3466 23.974 84.6639 23.414C84.9906 22.8447 85.4246 22.406 85.9659 22.098C86.5166 21.7807 87.1279 21.622 87.7999 21.622C88.3879 21.622 88.9153 21.7527 89.3819 22.014C89.8486 22.2753 90.2126 22.6393 90.4739 23.106C90.7353 23.5633 90.8706 24.0907 90.8799 24.688H85.7279V26.074C85.7279 26.8953 85.9099 27.5627 86.2739 28.076C86.6473 28.58 87.1839 28.832 87.8839 28.832C88.5279 28.832 89.0973 28.65 89.5919 28.286C90.0866 27.922 90.3899 27.4507 90.5019 26.872H90.8239C90.6933 27.5627 90.3619 28.1133 89.8299 28.524C89.2979 28.9347 88.6493 29.14 87.8839 29.14ZM89.3399 24.338C89.3399 23.526 89.2139 22.924 88.9619 22.532C88.7099 22.1307 88.3179 21.93 87.7859 21.93C87.1606 21.93 86.6753 22.1493 86.3299 22.588C85.9846 23.0267 85.7886 23.61 85.7419 24.338H89.3399ZM98.0592 29.14C97.4432 29.14 96.9485 28.986 96.5752 28.678C96.2112 28.37 96.0292 27.88 96.0292 27.208V22.168L95.0352 22.028V21.748H96.0292V20.586L97.4292 20.236V21.748H99.2492V22.028L97.4292 22.168V27.18C97.4292 28.1693 97.7839 28.664 98.4932 28.664C98.6425 28.664 98.7825 28.6407 98.9132 28.594C99.0532 28.5473 99.1605 28.5007 99.2352 28.454C99.3192 28.4073 99.3705 28.3747 99.3892 28.356L99.5712 28.58C99.1512 28.9533 98.6472 29.14 98.0592 29.14ZM103.511 29.14C102.82 29.14 102.195 28.986 101.635 28.678C101.075 28.3607 100.632 27.9173 100.305 27.348C99.9782 26.7787 99.8149 26.1207 99.8149 25.374C99.8149 24.6273 99.9736 23.974 100.291 23.414C100.618 22.8447 101.052 22.406 101.593 22.098C102.144 21.7807 102.755 21.622 103.427 21.622C104.015 21.622 104.542 21.7527 105.009 22.014C105.476 22.2753 105.84 22.6393 106.101 23.106C106.362 23.5633 106.498 24.0907 106.507 24.688H101.355V26.074C101.355 26.8953 101.537 27.5627 101.901 28.076C102.274 28.58 102.811 28.832 103.511 28.832C104.155 28.832 104.724 28.65 105.219 28.286C105.714 27.922 106.017 27.4507 106.129 26.872H106.451C106.32 27.5627 105.989 28.1133 105.457 28.524C104.925 28.9347 104.276 29.14 103.511 29.14ZM104.967 24.338C104.967 23.526 104.841 22.924 104.589 22.532C104.337 22.1307 103.945 21.93 103.413 21.93C102.788 21.93 102.302 22.1493 101.957 22.588C101.612 23.0267 101.416 23.61 101.369 24.338H104.967ZM109.749 29.14C109.151 29.14 108.661 28.986 108.279 28.678C107.896 28.3607 107.705 27.894 107.705 27.278C107.705 26.4007 108.073 25.78 108.811 25.416C109.548 25.0427 110.402 24.856 111.373 24.856H112.311V23.778C112.311 23.2927 112.255 22.9193 112.143 22.658C112.04 22.3873 111.877 22.2007 111.653 22.098C111.429 21.986 111.125 21.93 110.743 21.93C110.304 21.93 109.977 22.0187 109.763 22.196C109.548 22.364 109.441 22.5927 109.441 22.882C109.441 23.1527 109.571 23.33 109.833 23.414C109.833 23.6473 109.744 23.8527 109.567 24.03C109.389 24.2073 109.179 24.296 108.937 24.296C108.675 24.296 108.465 24.226 108.307 24.086C108.148 23.9367 108.069 23.7127 108.069 23.414C108.069 22.8727 108.339 22.4387 108.881 22.112C109.422 21.7853 110.099 21.622 110.911 21.622C112.777 21.622 113.711 22.434 113.711 24.058V28.062C113.711 28.2673 113.753 28.426 113.837 28.538C113.93 28.6407 114.061 28.692 114.229 28.692C114.387 28.692 114.513 28.6407 114.607 28.538C114.7 28.426 114.747 28.2767 114.747 28.09H115.041C115.041 28.4167 114.933 28.6733 114.719 28.86C114.513 29.0467 114.224 29.14 113.851 29.14C113.421 29.14 113.057 29.0187 112.759 28.776C112.469 28.524 112.32 28.1367 112.311 27.614C112.087 28.09 111.741 28.4633 111.275 28.734C110.817 29.0047 110.309 29.14 109.749 29.14ZM110.519 28.524C110.771 28.524 111.027 28.4493 111.289 28.3C111.559 28.1507 111.788 27.936 111.975 27.656C112.161 27.3667 112.273 27.0213 112.311 26.62V25.164H111.373C110.607 25.164 110.033 25.3367 109.651 25.682C109.277 26.018 109.091 26.494 109.091 27.11C109.091 27.6233 109.212 27.9873 109.455 28.202C109.697 28.4167 110.052 28.524 110.519 28.524Z" fill="white"/>
<path d="M11.5991 37.2851L11.7917 38.2842L15.5206 37.5309L15.3567 36.6728L11.5991 37.2851Z" fill="#CC965B"/>
<path d="M33.9573 36.4529L29.3631 34.2995L25.7938 35.254L29.1841 40.3823L25.3949 35.3359L21.2506 36.3817L23.9308 42.8771L20.866 36.4586L18.4482 36.9474L18.0205 41.6739L18.073 37.0228L15.52 37.531C15.4078 39.923 12.54 46.0748 23.6009 44.2197C35.8613 42.1648 39.4658 31.0874 39.5277 30.8933L29.8863 34.1931L33.9573 36.4529Z" fill="#CC965B"/>
<path d="M20.3916 27.5914C9.32358 29.4465 14.357 34.449 15.3568 36.6735L17.9263 36.2624L16.1438 31.9455L18.3044 36.2006L20.7395 35.8031L21.2038 28.7421L21.1276 35.7398L25.3007 34.8457L26.0863 29.146L25.7032 34.7796L29.3005 33.9667L31.6688 30.659L29.8295 33.879L39.5298 30.8926C39.529 30.8911 39.5312 30.884 39.5312 30.884C39.5312 30.884 24.4684 26.9071 20.3916 27.5914Z" fill="#CC965B"/>
<path d="M10.0676 31.229C9.18136 29.4537 8.8687 27.5015 8.96573 25.6098C9.02107 24.6618 9.19429 23.7238 9.47173 22.8189C9.73228 21.9097 10.0914 21.0317 10.5427 20.2005C11.454 18.5387 12.7183 17.0797 14.2104 15.8887C16.5061 14.0767 19.2899 12.8124 22.1584 12.3445C20.7762 13.6907 19.504 15.1814 18.5769 16.9855C18.0572 18.0227 17.6576 19.1899 17.6439 20.488C17.6159 21.7724 18.1089 23.2084 19.1181 24.2276C20.1128 25.2576 21.4303 25.857 22.7233 26.1517C24.0279 26.4493 25.3453 26.4665 26.6132 26.2991C29.1561 25.9584 31.51 24.8716 33.4169 23.2925C34.3462 22.522 35.2483 21.6121 35.9339 20.4801C36.6247 19.361 37.0574 17.9616 36.9725 16.5284C36.9014 15.0938 36.3084 13.7188 35.4553 12.6457C34.6064 11.5589 33.5412 10.7202 32.4085 10.0718C31.3308 9.47779 30.1826 9.02209 28.9908 8.71556C32.2863 6.07128 35.8714 3.70587 39.5313 1.4375C35.5451 3.243 31.6567 5.27994 28.0018 7.70572C27.6935 7.91272 27.3902 8.12619 27.0861 8.33894C26.4111 8.24654 25.7312 8.19446 25.0499 8.18297C22.5307 8.13122 20.0409 8.62428 17.7683 9.51912C16.6269 9.95972 15.5509 10.5211 14.5339 11.1478C14.0214 11.4662 13.5456 11.7897 13.0497 12.1555L12.719 12.4063L12.3582 12.6974C12.1261 12.8901 11.8982 13.0827 11.679 13.2847C9.925 14.8607 8.53888 16.8031 7.61879 18.9743C7.17288 20.0298 6.84715 21.1321 6.64776 22.2604C6.46938 23.3798 6.42475 24.5165 6.51479 25.6464C6.68027 27.9092 7.48292 30.0789 8.82989 31.9046C10.1797 33.7158 12.0901 35.0829 14.1788 35.8081C12.3625 34.5963 10.9315 33.0143 10.0676 31.229ZM25.111 12.1555C26.9517 12.2317 28.7788 12.6363 30.263 13.4572C31.8098 14.2686 32.8829 15.5193 33.0201 16.7871C33.1883 18.055 32.3869 19.5823 30.9947 20.8416C29.6557 22.0685 27.9192 22.9691 26.0914 23.2961C24.2938 23.6382 22.3093 23.3515 21.2484 22.3503C20.7216 21.8644 20.4061 21.2211 20.3543 20.4348C20.2983 19.6528 20.5002 18.7723 20.8582 17.9156C21.5827 16.1848 22.8613 14.5583 24.2521 13.0432C24.5295 12.7413 24.8192 12.448 25.111 12.1555Z" fill="#D1D3CB"/>
</svg>
