<svg width="30" height="30" viewBox="0 0 30 30" fill="none" xmlns="http://www.w3.org/2000/svg">
<path d="M14.996 20.0021C12.2417 20.0021 9.99393 17.7544 9.99393 15C9.99393 12.2456 12.2417 9.99787 14.996 9.99787C17.7503 9.99787 19.998 12.2456 19.998 15C19.998 17.7544 17.7503 20.0021 14.996 20.0021ZM29.9983 15C29.9983 17.0714 30.0171 19.124 29.9008 21.1917C29.7844 23.5933 29.2366 25.7247 27.4804 27.4809C25.7205 29.2409 23.5929 29.785 21.1913 29.9013C19.1199 30.0176 17.0673 29.9989 14.9997 29.9989C12.9284 29.9989 10.8758 30.0176 8.80815 29.9013C6.40658 29.785 4.27517 29.2371 2.51902 27.4809C0.759114 25.721 0.215007 23.5933 0.0986802 21.1917C-0.0176462 19.1203 0.00111615 17.0676 0.00111615 15C0.00111615 12.9324 -0.0176462 10.876 0.0986802 8.80832C0.215007 6.40669 0.762867 4.27525 2.51902 2.51907C4.27893 0.759128 6.40658 0.21501 8.80815 0.0986815C10.8795 -0.0176471 12.9321 0.00111424 14.9997 0.00111424C17.0711 0.00111424 19.1237 -0.0176471 21.1913 0.0986815C23.5929 0.21501 25.7243 0.76288 27.4804 2.51907C29.2403 4.27901 29.7844 6.40669 29.9008 8.80832C30.0208 10.876 29.9983 12.9286 29.9983 15V15ZM14.996 7.30355C10.7369 7.30355 7.29966 10.7409 7.29966 15C7.29966 19.2591 10.7369 22.6965 14.996 22.6965C19.255 22.6965 22.6923 19.2591 22.6923 15C22.6923 10.7409 19.255 7.30355 14.996 7.30355ZM23.0075 21.2142C22.0131 21.2142 21.2101 22.0172 21.2101 23.0117C21.2101 24.0061 22.0131 24.8091 23.0075 24.8091C24.0019 24.8091 24.8049 24.0061 24.8049 23.0117C24.8052 22.7755 24.7589 22.5417 24.6687 22.3235C24.5785 22.1052 24.4461 21.907 24.2791 21.74C24.1122 21.573 23.9139 21.4406 23.6957 21.3504C23.4775 21.2602 23.2436 21.2139 23.0075 21.2142V21.2142Z" fill="#7D8764"/>
</svg>
